<?xml version="1.0" encoding="UTF-8"?>
<svg width="1440" height="800" viewBox="0 0 1440 800" fill="none" xmlns="http://www.w3.org/2000/svg">
  <g opacity="0.05">
    <path d="M450.5 140.5L482 155.5M482 155.5L510 166.5M482 155.5L450.5 179M633 97L661.5 112.5M661.5 112.5L688 125M661.5 112.5L633 136M855 141.5L883.5 156.5M883.5 156.5L910 169M883.5 156.5L855 180M744 207.5L772.5 222.5M772.5 222.5L800 235M772.5 222.5L744 246M1065 97L1093.5 112.5M1093.5 112.5L1120 125M1093.5 112.5L1065 136M317 207.5L345.5 222.5M345.5 222.5L373 235M345.5 222.5L317 246M539 267.5L567.5 282.5M567.5 282.5L595 295M567.5 282.5L539 306M1194 190L1222.5 205.5M1222.5 205.5L1250 218M1222.5 205.5L1194 229M1400 267.5L1428.5 282.5M1428.5 282.5L1456 295M1428.5 282.5L1400 306M1316 344.5L1344.5 359.5M1344.5 359.5L1372 372M1344.5 359.5L1316 383M1523 406L1551.5 421.5M1551.5 421.5L1579 434M1551.5 421.5L1523 445M1109 328L1137.5 343.5M1137.5 343.5L1165 356M1137.5 343.5L1109 367M199 301L227.5 316.5M227.5 316.5L255 329M227.5 316.5L199 340M379 364L407.5 379.5M407.5 379.5L435 392M407.5 379.5L379 403M642 349L670.5 364.5M670.5 364.5L698 377M670.5 364.5L642 388M805 401L833.5 416.5M833.5 416.5L861 429M833.5 416.5L805 440M1047 397L1075.5 412.5M1075.5 412.5L1103 425M1075.5 412.5L1047 436M1256 527L1284.5 542.5M1284.5 542.5L1312 555M1284.5 542.5L1256 566M984 496L1012.5 511.5M1012.5 511.5L1040 524M1012.5 511.5L984 535M762 503L790.5 518.5M790.5 518.5L818 531M790.5 518.5L762 542M553 466L581.5 481.5M581.5 481.5L609 494M581.5 481.5L553 505M341 526L369.5 541.5M369.5 541.5L397 554M369.5 541.5L341 565M114 466L142.5 481.5M142.5 481.5L170 494M142.5 481.5L114 505M342 649L370.5 664.5M370.5 664.5L398 677M370.5 664.5L342 688M553 619L581.5 634.5M581.5 634.5L609 647M581.5 634.5L553 658M793 675L821.5 690.5M821.5 690.5L849 703M821.5 690.5L793 714M989 602L1017.5 617.5M1017.5 617.5L1045 630M1017.5 617.5L989 641M1207 613L1235.5 628.5M1235.5 628.5L1263 641M1235.5 628.5L1207 652M1444 591L1472.5 606.5M1472.5 606.5L1500 619M1472.5 606.5L1444 630" stroke="url(#grad1)" stroke-width="2" stroke-linecap="round" stroke-linejoin="round"/>
    
    <!-- Documents and Books -->
    <g transform="translate(100, 200)" opacity="0.8">
      <rect x="0" y="0" width="70" height="90" rx="4" fill="none" stroke="url(#grad2)" stroke-width="2"/>
      <line x1="10" y1="20" x2="60" y2="20" stroke="url(#grad2)" stroke-width="2"/>
      <line x1="10" y1="35" x2="50" y2="35" stroke="url(#grad2)" stroke-width="2"/>
      <line x1="10" y1="50" x2="55" y2="50" stroke="url(#grad2)" stroke-width="2"/>
      <line x1="10" y1="65" x2="40" y2="65" stroke="url(#grad2)" stroke-width="2"/>
    </g>
    
    <g transform="translate(1200, 300)" opacity="0.8">
      <rect x="0" y="0" width="70" height="90" rx="4" fill="none" stroke="url(#grad2)" stroke-width="2"/>
      <line x1="10" y1="20" x2="60" y2="20" stroke="url(#grad2)" stroke-width="2"/>
      <line x1="10" y1="35" x2="50" y2="35" stroke="url(#grad2)" stroke-width="2"/>
      <line x1="10" y1="50" x2="55" y2="50" stroke="url(#grad2)" stroke-width="2"/>
      <line x1="10" y1="65" x2="40" y2="65" stroke="url(#grad2)" stroke-width="2"/>
    </g>
    
    <g transform="translate(500, 400)" opacity="0.8">
      <rect x="0" y="0" width="100" height="20" rx="2" fill="none" stroke="url(#grad2)" stroke-width="2"/>
      <rect x="0" y="20" width="100" height="100" rx="2" fill="none" stroke="url(#grad2)" stroke-width="2"/>
      <line x1="10" y1="40" x2="90" y2="40" stroke="url(#grad2)" stroke-width="2"/>
      <line x1="10" y1="60" x2="90" y2="60" stroke="url(#grad2)" stroke-width="2"/>
      <line x1="10" y1="80" x2="90" y2="80" stroke="url(#grad2)" stroke-width="2"/>
      <line x1="10" y1="100" x2="50" y2="100" stroke="url(#grad2)" stroke-width="2"/>
    </g>
    
    <g transform="translate(900, 500)" opacity="0.8">
      <rect x="0" y="0" width="100" height="20" rx="2" fill="none" stroke="url(#grad2)" stroke-width="2"/>
      <rect x="0" y="20" width="100" height="100" rx="2" fill="none" stroke="url(#grad2)" stroke-width="2"/>
      <line x1="10" y1="40" x2="90" y2="40" stroke="url(#grad2)" stroke-width="2"/>
      <line x1="10" y1="60" x2="90" y2="60" stroke="url(#grad2)" stroke-width="2"/>
      <line x1="10" y1="80" x2="90" y2="80" stroke="url(#grad2)" stroke-width="2"/>
      <line x1="10" y1="100" x2="50" y2="100" stroke="url(#grad2)" stroke-width="2"/>
    </g>
    
    <!-- Books stacked -->
    <g transform="translate(300, 600)" opacity="0.8">
      <rect x="0" y="0" width="120" height="25" rx="2" fill="none" stroke="url(#grad2)" stroke-width="2"/>
      <rect x="5" y="25" width="110" height="25" rx="2" fill="none" stroke="url(#grad2)" stroke-width="2"/>
      <rect x="10" y="50" width="100" height="25" rx="2" fill="none" stroke="url(#grad2)" stroke-width="2"/>
      <rect x="15" y="75" width="90" height="25" rx="2" fill="none" stroke="url(#grad2)" stroke-width="2"/>
    </g>
    
    <g transform="translate(1000, 200)" opacity="0.8">
      <rect x="0" y="0" width="120" height="25" rx="2" fill="none" stroke="url(#grad2)" stroke-width="2"/>
      <rect x="5" y="25" width="110" height="25" rx="2" fill="none" stroke="url(#grad2)" stroke-width="2"/>
      <rect x="10" y="50" width="100" height="25" rx="2" fill="none" stroke="url(#grad2)" stroke-width="2"/>
      <rect x="15" y="75" width="90" height="25" rx="2" fill="none" stroke="url(#grad2)" stroke-width="2"/>
    </g>
    
    <!-- Research citation connections -->
    <path d="M213 345C350 290 470 380 550 280" stroke="url(#grad3)" stroke-width="1.5" stroke-dasharray="4 4"/>
    <path d="M470 421C610 380 700 480 800 380" stroke="url(#grad3)" stroke-width="1.5" stroke-dasharray="4 4"/>
    <path d="M770 540C910 490 1000 580 1100 480" stroke="url(#grad3)" stroke-width="1.5" stroke-dasharray="4 4"/>
    <path d="M1070 415C1210 370 1300 470 1400 370" stroke="url(#grad3)" stroke-width="1.5" stroke-dasharray="4 4"/>
    <path d="M360 665C500 590 610 690 700 580" stroke="url(#grad3)" stroke-width="1.5" stroke-dasharray="4 4"/>
    <path d="M570 635C710 580 800 670 900 580" stroke="url(#grad3)" stroke-width="1.5" stroke-dasharray="4 4"/>
    <path d="M1010 615C1150 570 1240 660 1340 560" stroke="url(#grad3)" stroke-width="1.5" stroke-dasharray="4 4"/>
  </g>
  
  <!-- Gradients -->
  <defs>
    <linearGradient id="grad1" x1="0%" y1="0%" x2="100%" y2="100%">
      <stop offset="0%" stop-color="#3B82F6" stop-opacity="0.5" />
      <stop offset="100%" stop-color="#1D4ED8" stop-opacity="0.8" />
    </linearGradient>
    
    <linearGradient id="grad2" x1="0%" y1="0%" x2="100%" y2="100%">
      <stop offset="0%" stop-color="#60A5FA" stop-opacity="0.7" />
      <stop offset="100%" stop-color="#3B82F6" stop-opacity="0.9" />
    </linearGradient>
    
    <linearGradient id="grad3" x1="0%" y1="0%" x2="100%" y2="0%">
      <stop offset="0%" stop-color="#93C5FD" stop-opacity="0.5" />
      <stop offset="100%" stop-color="#3B82F6" stop-opacity="0.8" />
    </linearGradient>
  </defs>
</svg>