<?xml version="1.0" encoding="UTF-8"?>
<svg width="1920" height="1080" viewBox="0 0 1920 1080" fill="none" xmlns="http://www.w3.org/2000/svg">
  <!-- Main background gradient with contact theme -->
  <defs>
    <linearGradient id="bg-gradient" x1="0" y1="0" x2="1920" y2="1080" gradientUnits="userSpaceOnUse">
      <stop offset="0%" stop-color="#f0fdfa" />
      <stop offset="100%" stop-color="#e0f2f1" />
    </linearGradient>
    
    <linearGradient id="accent-gradient" x1="0" y1="0" x2="1" y2="1" gradientUnits="objectBoundingBox">
      <stop offset="0%" stop-color="#14b8a6" />
      <stop offset="100%" stop-color="#0d9488" />
    </linearGradient>
  </defs>
  
  <!-- Background -->
  <rect width="1920" height="1080" fill="url(#bg-gradient)" />
  
  <!-- Abstract contact pattern -->
  <g opacity="0.1">
    <!-- Contact form outline -->
    <rect x="630" y="200" width="660" height="680" rx="20" fill="white" stroke="#14b8a6" stroke-width="4" />
    
    <!-- Form header -->
    <rect x="660" y="240" width="600" height="60" rx="10" fill="#99f6e4" />
    <text x="800" y="280" font-family="Arial" font-size="28" fill="#115e59" font-weight="bold">CONTACT ME</text>
    
    <!-- Name field -->
    <rect x="660" y="340" width="600" height="70" rx="10" fill="#ccfbf1" />
    <rect x="680" y="360" width="100" height="30" rx="5" fill="#5eead4" />
    <text x="700" y="380" font-family="Arial" font-size="16" fill="#134e4a">Name</text>
    
    <!-- Email field -->
    <rect x="660" y="430" width="600" height="70" rx="10" fill="#ccfbf1" />
    <rect x="680" y="450" width="100" height="30" rx="5" fill="#5eead4" />
    <text x="700" y="470" font-family="Arial" font-size="16" fill="#134e4a">Email</text>
    
    <!-- Subject field -->
    <rect x="660" y="520" width="600" height="70" rx="10" fill="#ccfbf1" />
    <rect x="680" y="540" width="100" height="30" rx="5" fill="#5eead4" />
    <text x="695" y="560" font-family="Arial" font-size="16" fill="#134e4a">Subject</text>
    
    <!-- Message field -->
    <rect x="660" y="610" width="600" height="170" rx="10" fill="#ccfbf1" />
    <rect x="680" y="630" width="120" height="30" rx="5" fill="#5eead4" />
    <text x="695" y="650" font-family="Arial" font-size="16" fill="#134e4a">Message</text>
    
    <!-- Submit button -->
    <rect x="800" y="810" width="320" height="50" rx="25" fill="url(#accent-gradient)" />
    <text x="915" y="842" font-family="Arial" font-size="20" fill="white" font-weight="bold">SEND</text>
    
    <!-- Contact icons -->
    <g transform="translate(400, 350)">
      <!-- Email icon -->
      <rect x="0" y="0" width="150" height="100" rx="10" fill="url(#accent-gradient)" fill-opacity="0.4" />
      <path d="M25,25 L125,25 L75,75 Z" fill="#14b8a6" />
      <path d="M25,25 V75 H125 V25" stroke="#14b8a6" stroke-width="3" fill="none" />
      <rect x="20" y="120" width="110" height="20" rx="5" fill="#14b8a6" fill-opacity="0.4" />
      
      <!-- Phone icon -->
      <rect x="0" y="180" width="150" height="100" rx="10" fill="url(#accent-gradient)" fill-opacity="0.4" />
      <rect x="50" y="190" width="50" height="80" rx="10" stroke="#14b8a6" stroke-width="3" fill="none" />
      <circle cx="75" cy="250" r="10" stroke="#14b8a6" stroke-width="2" fill="none" />
      <line x1="75" y1="200" x2="75" y2="205" stroke="#14b8a6" stroke-width="2" />
      <rect x="20" y="300" width="110" height="20" rx="5" fill="#14b8a6" fill-opacity="0.4" />
      
      <!-- Location icon -->
      <rect x="0" y="360" width="150" height="100" rx="10" fill="url(#accent-gradient)" fill-opacity="0.4" />
      <circle cx="75" cy="400" r="25" stroke="#14b8a6" stroke-width="3" fill="none" />
      <circle cx="75" cy="400" r="8" fill="#14b8a6" />
      <path d="M75,425 L75,450" stroke="#14b8a6" stroke-width="2" />
      <path d="M60,435 L90,435" stroke="#14b8a6" stroke-width="2" />
      <rect x="20" y="480" width="110" height="20" rx="5" fill="#14b8a6" fill-opacity="0.4" />
    </g>
    
    <!-- Social icons -->
    <g transform="translate(1400, 350)">
      <!-- LinkedIn icon -->
      <rect x="0" y="0" width="100" height="100" rx="10" fill="url(#accent-gradient)" fill-opacity="0.4" />
      <rect x="20" y="20" width="60" height="60" rx="5" stroke="#14b8a6" stroke-width="3" fill="none" />
      <circle cx="30" cy="30" r="5" fill="#14b8a6" />
      <rect x="45" y="25" width="30" height="10" rx="2" fill="#14b8a6" />
      <rect x="25" y="45" width="50" height="30" rx="2" fill="#14b8a6" />
      <rect x="20" y="120" width="60" height="20" rx="5" fill="#14b8a6" fill-opacity="0.4" />
      
      <!-- Twitter icon -->
      <rect x="0" y="180" width="100" height="100" rx="10" fill="url(#accent-gradient)" fill-opacity="0.4" />
      <circle cx="50" cy="230" r="30" stroke="#14b8a6" stroke-width="3" fill="none" />
      <path d="M35,220 C40,215 48,215 55,220 C62,225 65,235 60,245" stroke="#14b8a6" stroke-width="2" fill="none" />
      <path d="M60,220 L60,245" stroke="#14b8a6" stroke-width="2" fill="none" />
      <path d="M35,245 L60,220" stroke="#14b8a6" stroke-width="2" fill="none" />
      <rect x="20" y="300" width="60" height="20" rx="5" fill="#14b8a6" fill-opacity="0.4" />
      
      <!-- GitHub icon -->
      <rect x="0" y="360" width="100" height="100" rx="10" fill="url(#accent-gradient)" fill-opacity="0.4" />
      <circle cx="50" cy="410" r="30" stroke="#14b8a6" stroke-width="3" fill="none" />
      <circle cx="50" cy="395" r="7" fill="#14b8a6" />
      <path d="M35,420 C40,430 60,430 65,420" stroke="#14b8a6" stroke-width="2" fill="none" />
      <path d="M30,405 C25,390 75,390 70,405" stroke="#14b8a6" stroke-width="2" fill="none" />
      <rect x="20" y="480" width="60" height="20" rx="5" fill="#14b8a6" fill-opacity="0.4" />
    </g>
    
    <!-- Abstract connection lines -->
    <path d="M550,400 L630,375" stroke="#14b8a6" stroke-width="2" />
    <path d="M550,480 L630,465" stroke="#14b8a6" stroke-width="2" />
    <path d="M550,560 L630,555" stroke="#14b8a6" stroke-width="2" />
    
    <path d="M1290,375 L1400,400" stroke="#14b8a6" stroke-width="2" />
    <path d="M1290,465 L1400,480" stroke="#14b8a6" stroke-width="2" />
    <path d="M1290,555 L1400,560" stroke="#14b8a6" stroke-width="2" />
    
    <!-- Abstract data flow -->
    <path d="M100,300 C300,250 500,350 700,300 S900,250 1100,300 S1300,350 1500,300 S1700,250 1900,300" 
          stroke="url(#accent-gradient)" stroke-width="3" fill="none" opacity="0.1" stroke-linecap="round" />
    
    <path d="M100,780 C300,730 500,830 700,780 S900,730 1100,780 S1300,830 1500,780 S1700,730 1900,780" 
          stroke="url(#accent-gradient)" stroke-width="3" fill="none" opacity="0.1" stroke-linecap="round" />
  </g>
</svg>