<?xml version="1.0" encoding="UTF-8"?>
<svg width="1920" height="1080" viewBox="0 0 1920 1080" fill="none" xmlns="http://www.w3.org/2000/svg">
  <!-- Subtle gradient background -->
  <rect width="1920" height="1080" fill="url(#about-gradient)" />
  
  <!-- About abstract elements -->
  <g opacity="0.06">
    <!-- Personal profile pattern -->
    <circle cx="350" cy="300" r="180" stroke="#2B6CB0" stroke-width="3" fill="none" />
    <circle cx="350" cy="300" r="178" stroke="#3182CE" stroke-width="1" fill="none" />
    
    <!-- Educational pattern -->
    <rect x="600" y="100" width="400" height="150" rx="10" stroke="#2B6CB0" stroke-width="2" fill="none" />
    <rect x="620" y="120" width="300" height="30" rx="3" fill="#2B6CB0" />
    <rect x="620" y="160" width="360" height="15" rx="3" fill="#3182CE" />
    <rect x="620" y="185" width="320" height="15" rx="3" fill="#3182CE" />
    <rect x="620" y="210" width="340" height="15" rx="3" fill="#3182CE" />
    
    <rect x="600" y="280" width="400" height="150" rx="10" stroke="#2B6CB0" stroke-width="2" fill="none" />
    <rect x="620" y="300" width="300" height="30" rx="3" fill="#2B6CB0" />
    <rect x="620" y="340" width="360" height="15" rx="3" fill="#3182CE" />
    <rect x="620" y="365" width="320" height="15" rx="3" fill="#3182CE" />
    <rect x="620" y="390" width="340" height="15" rx="3" fill="#3182CE" />
    
    <!-- Professional profile pattern -->
    <rect x="1100" y="100" width="600" height="330" rx="10" stroke="#2B6CB0" stroke-width="2" fill="none" />
    <rect x="1120" y="120" width="400" height="30" rx="3" fill="#2B6CB0" />
    <rect x="1120" y="170" width="560" height="15" rx="3" fill="#3182CE" />
    <rect x="1120" y="195" width="520" height="15" rx="3" fill="#3182CE" />
    <rect x="1120" y="220" width="540" height="15" rx="3" fill="#3182CE" />
    <rect x="1120" y="245" width="530" height="15" rx="3" fill="#3182CE" />
    <rect x="1120" y="270" width="550" height="15" rx="3" fill="#3182CE" />
    <rect x="1120" y="295" width="510" height="15" rx="3" fill="#3182CE" />
    <rect x="1120" y="320" width="560" height="15" rx="3" fill="#3182CE" />
    <rect x="1120" y="345" width="500" height="15" rx="3" fill="#3182CE" />
    <rect x="1120" y="370" width="540" height="15" rx="3" fill="#3182CE" />
    <rect x="1120" y="395" width="520" height="15" rx="3" fill="#3182CE" />
    
    <!-- Timeline element pattern -->
    <line x1="960" y1="500" x2="960" y2="900" stroke="#2B6CB0" stroke-width="3" />
    
    <circle cx="960" cy="550" r="15" fill="#2B6CB0" />
    <rect x="990" y="520" width="200" height="30" rx="3" fill="#2B6CB0" />
    <rect x="990" y="560" width="400" height="15" rx="3" fill="#3182CE" />
    <rect x="990" y="585" width="350" height="15" rx="3" fill="#3182CE" />
    
    <circle cx="960" cy="650" r="15" fill="#2B6CB0" />
    <rect x="990" y="620" width="200" height="30" rx="3" fill="#2B6CB0" />
    <rect x="990" y="660" width="400" height="15" rx="3" fill="#3182CE" />
    <rect x="990" y="685" width="350" height="15" rx="3" fill="#3182CE" />
    
    <circle cx="960" cy="750" r="15" fill="#2B6CB0" />
    <rect x="990" y="720" width="200" height="30" rx="3" fill="#2B6CB0" />
    <rect x="990" y="760" width="400" height="15" rx="3" fill="#3182CE" />
    <rect x="990" y="785" width="350" height="15" rx="3" fill="#3182CE" />
    
    <circle cx="960" cy="850" r="15" fill="#2B6CB0" />
    <rect x="990" y="820" width="200" height="30" rx="3" fill="#2B6CB0" />
    <rect x="990" y="860" width="400" height="15" rx="3" fill="#3182CE" />
    <rect x="990" y="885" width="350" height="15" rx="3" fill="#3182CE" />
    
    <rect x="530" y="520" width="200" height="30" rx="3" fill="#2B6CB0" />
    <rect x="530" y="560" width="400" height="15" rx="3" fill="#3182CE" />
    <rect x="530" y="585" width="350" height="15" rx="3" fill="#3182CE" />
    
    <rect x="530" y="620" width="200" height="30" rx="3" fill="#2B6CB0" />
    <rect x="530" y="660" width="400" height="15" rx="3" fill="#3182CE" />
    <rect x="530" y="685" width="350" height="15" rx="3" fill="#3182CE" />
    
    <rect x="530" y="720" width="200" height="30" rx="3" fill="#2B6CB0" />
    <rect x="530" y="760" width="400" height="15" rx="3" fill="#3182CE" />
    <rect x="530" y="785" width="350" height="15" rx="3" fill="#3182CE" />
    
    <rect x="530" y="820" width="200" height="30" rx="3" fill="#2B6CB0" />
    <rect x="530" y="860" width="400" height="15" rx="3" fill="#3182CE" />
    <rect x="530" y="885" width="350" height="15" rx="3" fill="#3182CE" />
    
    <!-- Interests pattern -->
    <circle cx="200" cy="600" r="60" stroke="#2B6CB0" stroke-width="2" fill="none" />
    <circle cx="200" cy="600" r="30" fill="#3182CE" fill-opacity="0.3" />
    <line x1="200" y1="540" x2="200" y2="660" stroke="#2B6CB0" stroke-width="1" />
    <line x1="140" y1="600" x2="260" y2="600" stroke="#2B6CB0" stroke-width="1" />
    
    <circle cx="200" cy="780" r="60" stroke="#2B6CB0" stroke-width="2" fill="none" />
    <circle cx="200" cy="780" r="30" fill="#3182CE" fill-opacity="0.3" />
    <path d="M170,750 L230,810" stroke="#2B6CB0" stroke-width="1" />
    <path d="M170,810 L230,750" stroke="#2B6CB0" stroke-width="1" />
    
    <circle cx="1700" cy="600" r="60" stroke="#2B6CB0" stroke-width="2" fill="none" />
    <circle cx="1700" cy="600" r="30" fill="#3182CE" fill-opacity="0.3" />
    <path d="M1680,580 L1720,580 L1700,620 Z" stroke="#2B6CB0" stroke-width="1" fill="none" />
    
    <circle cx="1700" cy="780" r="60" stroke="#2B6CB0" stroke-width="2" fill="none" />
    <circle cx="1700" cy="780" r="30" fill="#3182CE" fill-opacity="0.3" />
    <rect x="1680" y="760" width="40" height="40" stroke="#2B6CB0" stroke-width="1" fill="none" />
  </g>
  
  <!-- Defs for gradients -->
  <defs>
    <linearGradient id="about-gradient" x1="0" y1="1080" x2="1920" y2="0" gradientUnits="userSpaceOnUse">
      <stop offset="0" stop-color="#F7FAFC" />
      <stop offset="1" stop-color="#EFF6FF" />
    </linearGradient>
  </defs>
</svg>