<?xml version="1.0" encoding="UTF-8"?>
<svg width="1920" height="1080" viewBox="0 0 1920 1080" fill="none" xmlns="http://www.w3.org/2000/svg">
  <!-- Subtle gradient background -->
  <rect width="1920" height="1080" fill="url(#articles-gradient)" />
  
  <!-- Articles abstract elements -->
  <g opacity="0.06">
    <!-- Document patterns -->
    <rect x="100" y="100" width="500" height="300" rx="10" stroke="#2B6CB0" stroke-width="2" />
    <rect x="120" y="130" width="460" height="30" rx="5" fill="#2B6CB0" />
    <rect x="120" y="180" width="200" height="15" rx="3" fill="#3182CE" />
    <rect x="120" y="210" width="460" height="10" rx="3" fill="#3182CE" />
    <rect x="120" y="230" width="460" height="10" rx="3" fill="#3182CE" />
    <rect x="120" y="250" width="460" height="10" rx="3" fill="#3182CE" />
    <rect x="120" y="270" width="460" height="10" rx="3" fill="#3182CE" />
    <rect x="120" y="290" width="460" height="10" rx="3" fill="#3182CE" />
    <rect x="120" y="310" width="300" height="10" rx="3" fill="#3182CE" />
    <rect x="120" y="350" width="150" height="25" rx="5" fill="#2B6CB0" />
    
    <rect x="700" y="100" width="500" height="300" rx="10" stroke="#2B6CB0" stroke-width="2" />
    <rect x="720" y="130" width="460" height="30" rx="5" fill="#2B6CB0" />
    <rect x="720" y="180" width="200" height="15" rx="3" fill="#3182CE" />
    <rect x="720" y="210" width="460" height="10" rx="3" fill="#3182CE" />
    <rect x="720" y="230" width="460" height="10" rx="3" fill="#3182CE" />
    <rect x="720" y="250" width="460" height="10" rx="3" fill="#3182CE" />
    <rect x="720" y="270" width="460" height="10" rx="3" fill="#3182CE" />
    <rect x="720" y="290" width="460" height="10" rx="3" fill="#3182CE" />
    <rect x="720" y="310" width="300" height="10" rx="3" fill="#3182CE" />
    <rect x="720" y="350" width="150" height="25" rx="5" fill="#2B6CB0" />
    
    <rect x="1300" y="100" width="500" height="300" rx="10" stroke="#2B6CB0" stroke-width="2" />
    <rect x="1320" y="130" width="460" height="30" rx="5" fill="#2B6CB0" />
    <rect x="1320" y="180" width="200" height="15" rx="3" fill="#3182CE" />
    <rect x="1320" y="210" width="460" height="10" rx="3" fill="#3182CE" />
    <rect x="1320" y="230" width="460" height="10" rx="3" fill="#3182CE" />
    <rect x="1320" y="250" width="460" height="10" rx="3" fill="#3182CE" />
    <rect x="1320" y="270" width="460" height="10" rx="3" fill="#3182CE" />
    <rect x="1320" y="290" width="460" height="10" rx="3" fill="#3182CE" />
    <rect x="1320" y="310" width="300" height="10" rx="3" fill="#3182CE" />
    <rect x="1320" y="350" width="150" height="25" rx="5" fill="#2B6CB0" />
    
    <rect x="300" y="450" width="500" height="300" rx="10" stroke="#2B6CB0" stroke-width="2" />
    <rect x="320" y="480" width="460" height="30" rx="5" fill="#2B6CB0" />
    <rect x="320" y="530" width="200" height="15" rx="3" fill="#3182CE" />
    <rect x="320" y="560" width="460" height="10" rx="3" fill="#3182CE" />
    <rect x="320" y="580" width="460" height="10" rx="3" fill="#3182CE" />
    <rect x="320" y="600" width="460" height="10" rx="3" fill="#3182CE" />
    <rect x="320" y="620" width="460" height="10" rx="3" fill="#3182CE" />
    <rect x="320" y="640" width="460" height="10" rx="3" fill="#3182CE" />
    <rect x="320" y="660" width="300" height="10" rx="3" fill="#3182CE" />
    <rect x="320" y="700" width="150" height="25" rx="5" fill="#2B6CB0" />
    
    <rect x="1000" y="450" width="500" height="300" rx="10" stroke="#2B6CB0" stroke-width="2" />
    <rect x="1020" y="480" width="460" height="30" rx="5" fill="#2B6CB0" />
    <rect x="1020" y="530" width="200" height="15" rx="3" fill="#3182CE" />
    <rect x="1020" y="560" width="460" height="10" rx="3" fill="#3182CE" />
    <rect x="1020" y="580" width="460" height="10" rx="3" fill="#3182CE" />
    <rect x="1020" y="600" width="460" height="10" rx="3" fill="#3182CE" />
    <rect x="1020" y="620" width="460" height="10" rx="3" fill="#3182CE" />
    <rect x="1020" y="640" width="460" height="10" rx="3" fill="#3182CE" />
    <rect x="1020" y="660" width="300" height="10" rx="3" fill="#3182CE" />
    <rect x="1020" y="700" width="150" height="25" rx="5" fill="#2B6CB0" />
    
    <!-- Pattern for publication dates -->
    <rect x="120" y="850" width="200" height="20" rx="5" fill="#2B6CB0" />
    <rect x="350" y="850" width="200" height="20" rx="5" fill="#2B6CB0" />
    <rect x="600" y="850" width="200" height="20" rx="5" fill="#2B6CB0" />
    <rect x="850" y="850" width="200" height="20" rx="5" fill="#2B6CB0" />
    <rect x="1100" y="850" width="200" height="20" rx="5" fill="#2B6CB0" />
    <rect x="1350" y="850" width="200" height="20" rx="5" fill="#2B6CB0" />
    <rect x="1600" y="850" width="200" height="20" rx="5" fill="#2B6CB0" />
    
    <!-- Citation pattern -->
    <rect x="120" y="900" width="1600" height="2" fill="#3182CE" />
    <rect x="120" y="930" width="1600" height="2" fill="#3182CE" />
    <rect x="120" y="960" width="1600" height="2" fill="#3182CE" />
    <rect x="120" y="990" width="1600" height="2" fill="#3182CE" />
    <rect x="120" y="1020" width="1600" height="2" fill="#3182CE" />
  </g>
  
  <!-- Defs for gradients -->
  <defs>
    <linearGradient id="articles-gradient" x1="1920" y1="1080" x2="0" y2="0" gradientUnits="userSpaceOnUse">
      <stop offset="0" stop-color="#F7FAFC" />
      <stop offset="1" stop-color="#E6FFFA" />
    </linearGradient>
  </defs>
</svg>