<?xml version="1.0" encoding="UTF-8"?>
<svg width="1920" height="1080" viewBox="0 0 1920 1080" fill="none" xmlns="http://www.w3.org/2000/svg">
  <!-- Subtle gradient background -->
  <rect width="1920" height="1080" fill="url(#conferences-gradient)" />
  
  <!-- Conferences abstract elements -->
  <g opacity="0.06">
    <!-- Conference stage patterns -->
    <path d="M0,400 C100,350 300,375 500,350 C700,325 900,350 1100,325 C1300,300 1500,325 1700,300 C1800,287.5 1900,300 1920,287.5 L1920,500 L0,500 Z" fill="#2B6CB0" />
    
    <!-- Speaker podium -->
    <rect x="800" y="300" width="300" height="100" rx="10" fill="#3182CE" />
    <rect x="850" y="250" width="200" height="50" rx="10" fill="#2B6CB0" />
    
    <!-- Audience seating pattern -->
    <path d="M200,550 L300,550 L350,650 L150,650 Z" stroke="#2B6CB0" stroke-width="2" fill="none" />
    <path d="M400,550 L500,550 L550,650 L350,650 Z" stroke="#2B6CB0" stroke-width="2" fill="none" />
    <path d="M600,550 L700,550 L750,650 L550,650 Z" stroke="#2B6CB0" stroke-width="2" fill="none" />
    <path d="M800,550 L900,550 L950,650 L750,650 Z" stroke="#2B6CB0" stroke-width="2" fill="none" />
    <path d="M1000,550 L1100,550 L1150,650 L950,650 Z" stroke="#2B6CB0" stroke-width="2" fill="none" />
    <path d="M1200,550 L1300,550 L1350,650 L1150,650 Z" stroke="#2B6CB0" stroke-width="2" fill="none" />
    <path d="M1400,550 L1500,550 L1550,650 L1350,650 Z" stroke="#2B6CB0" stroke-width="2" fill="none" />
    <path d="M1600,550 L1700,550 L1750,650 L1550,650 Z" stroke="#2B6CB0" stroke-width="2" fill="none" />
    
    <path d="M300,700 L400,700 L450,800 L250,800 Z" stroke="#2B6CB0" stroke-width="2" fill="none" />
    <path d="M500,700 L600,700 L650,800 L450,800 Z" stroke="#2B6CB0" stroke-width="2" fill="none" />
    <path d="M700,700 L800,700 L850,800 L650,800 Z" stroke="#2B6CB0" stroke-width="2" fill="none" />
    <path d="M900,700 L1000,700 L1050,800 L850,800 Z" stroke="#2B6CB0" stroke-width="2" fill="none" />
    <path d="M1100,700 L1200,700 L1250,800 L1050,800 Z" stroke="#2B6CB0" stroke-width="2" fill="none" />
    <path d="M1300,700 L1400,700 L1450,800 L1250,800 Z" stroke="#2B6CB0" stroke-width="2" fill="none" />
    <path d="M1500,700 L1600,700 L1650,800 L1450,800 Z" stroke="#2B6CB0" stroke-width="2" fill="none" />
    
    <path d="M400,850 L500,850 L550,950 L350,950 Z" stroke="#2B6CB0" stroke-width="2" fill="none" />
    <path d="M600,850 L700,850 L750,950 L550,950 Z" stroke="#2B6CB0" stroke-width="2" fill="none" />
    <path d="M800,850 L900,850 L950,950 L750,950 Z" stroke="#2B6CB0" stroke-width="2" fill="none" />
    <path d="M1000,850 L1100,850 L1150,950 L950,950 Z" stroke="#2B6CB0" stroke-width="2" fill="none" />
    <path d="M1200,850 L1300,850 L1350,950 L1150,950 Z" stroke="#2B6CB0" stroke-width="2" fill="none" />
    <path d="M1400,850 L1500,850 L1550,950 L1350,950 Z" stroke="#2B6CB0" stroke-width="2" fill="none" />
    
    <!-- Conference banner -->
    <rect x="400" y="100" width="1100" height="120" rx="10" stroke="#3182CE" stroke-width="3" fill="none" />
    <rect x="500" y="130" width="900" height="30" rx="5" fill="#2B6CB0" />
    <rect x="700" y="180" width="500" height="15" rx="3" fill="#3182CE" />
    
    <!-- Connection pattern -->
    <circle cx="250" cy="200" r="40" fill="#2B6CB0" fill-opacity="0.2" />
    <circle cx="400" cy="220" r="30" fill="#3182CE" fill-opacity="0.2" />
    <circle cx="550" cy="180" r="35" fill="#2B6CB0" fill-opacity="0.2" />
    <line x1="250" y1="200" x2="400" y2="220" stroke="#2B6CB0" stroke-width="1" />
    <line x1="400" y1="220" x2="550" y2="180" stroke="#2B6CB0" stroke-width="1" />
    
    <circle cx="1650" cy="200" r="40" fill="#2B6CB0" fill-opacity="0.2" />
    <circle cx="1500" cy="220" r="30" fill="#3182CE" fill-opacity="0.2" />
    <circle cx="1350" cy="180" r="35" fill="#2B6CB0" fill-opacity="0.2" />
    <line x1="1650" y1="200" x2="1500" y2="220" stroke="#2B6CB0" stroke-width="1" />
    <line x1="1500" y1="220" x2="1350" y2="180" stroke="#2B6CB0" stroke-width="1" />
  </g>
  
  <!-- Defs for gradients -->
  <defs>
    <linearGradient id="conferences-gradient" x1="0" y1="1080" x2="1920" y2="0" gradientUnits="userSpaceOnUse">
      <stop offset="0" stop-color="#EBF8FF" />
      <stop offset="1" stop-color="#FFFAF0" />
    </linearGradient>
  </defs>
</svg>