<?xml version="1.0" encoding="UTF-8"?>
<svg width="1920" height="1080" viewBox="0 0 1920 1080" fill="none" xmlns="http://www.w3.org/2000/svg">
  <!-- Subtle gradient background -->
  <rect width="1920" height="1080" fill="url(#home-gradient)" />
  
  <!-- Home abstract elements -->
  <g opacity="0.06">
    <!-- Abstract data science elements -->
    <circle cx="200" cy="200" r="80" stroke="#2B6CB0" stroke-width="2" />
    <circle cx="200" cy="200" r="40" fill="#3182CE" fill-opacity="0.4" />
    <line x1="200" y1="120" x2="200" y2="280" stroke="#2B6CB0" stroke-width="1" />
    <line x1="120" y1="200" x2="280" y2="200" stroke="#2B6CB0" stroke-width="1" />
    
    <circle cx="1720" cy="200" r="80" stroke="#2B6CB0" stroke-width="2" />
    <circle cx="1720" cy="200" r="40" fill="#3182CE" fill-opacity="0.4" />
    <line x1="1720" y1="120" x2="1720" y2="280" stroke="#2B6CB0" stroke-width="1" />
    <line x1="1640" y1="200" x2="1800" y2="200" stroke="#2B6CB0" stroke-width="1" />
    
    <!-- Connection lines pattern -->
    <line x1="280" y1="200" x2="500" y2="300" stroke="#2B6CB0" stroke-width="1" stroke-dasharray="5 5" />
    <line x1="1640" y1="200" x2="1420" y2="300" stroke="#2B6CB0" stroke-width="1" stroke-dasharray="5 5" />
    
    <!-- Central decoration pattern -->
    <rect x="500" y="100" width="920" height="400" rx="10" stroke="#2B6CB0" stroke-width="2" fill="none" />
    <circle cx="960" cy="300" r="150" stroke="#3182CE" stroke-width="3" fill="none" />
    <circle cx="960" cy="300" r="100" stroke="#2B6CB0" stroke-width="2" fill="none" />
    <circle cx="960" cy="300" r="50" fill="#3182CE" fill-opacity="0.3" />
    
    <!-- Data points -->
    <circle cx="850" cy="220" r="8" fill="#2B6CB0" />
    <circle cx="900" cy="180" r="8" fill="#2B6CB0" />
    <circle cx="980" cy="200" r="8" fill="#2B6CB0" />
    <circle cx="1020" cy="250" r="8" fill="#2B6CB0" />
    <circle cx="1050" cy="320" r="8" fill="#2B6CB0" />
    <circle cx="1000" cy="380" r="8" fill="#2B6CB0" />
    <circle cx="920" cy="400" r="8" fill="#2B6CB0" />
    <circle cx="860" cy="370" r="8" fill="#2B6CB0" />
    <circle cx="830" cy="310" r="8" fill="#2B6CB0" />
    
    <!-- Connection lines between data points -->
    <line x1="850" y1="220" x2="900" y2="180" stroke="#3182CE" stroke-width="1" />
    <line x1="900" y1="180" x2="980" y2="200" stroke="#3182CE" stroke-width="1" />
    <line x1="980" y1="200" x2="1020" y2="250" stroke="#3182CE" stroke-width="1" />
    <line x1="1020" y1="250" x2="1050" y2="320" stroke="#3182CE" stroke-width="1" />
    <line x1="1050" y1="320" x2="1000" y2="380" stroke="#3182CE" stroke-width="1" />
    <line x1="1000" y1="380" x2="920" y2="400" stroke="#3182CE" stroke-width="1" />
    <line x1="920" y1="400" x2="860" y2="370" stroke="#3182CE" stroke-width="1" />
    <line x1="860" y1="370" x2="830" y2="310" stroke="#3182CE" stroke-width="1" />
    <line x1="830" y1="310" x2="850" y2="220" stroke="#3182CE" stroke-width="1" />
    
    <!-- Text-like pattern -->
    <rect x="580" y="520" width="760" height="30" rx="5" fill="#2B6CB0" />
    <rect x="580" y="570" width="600" height="20" rx="5" fill="#3182CE" />
    <rect x="580" y="610" width="700" height="20" rx="5" fill="#3182CE" />
    <rect x="580" y="650" width="500" height="20" rx="5" fill="#3182CE" />
    
    <!-- Bottom patterns -->
    <rect x="200" y="750" width="400" height="220" rx="10" stroke="#2B6CB0" stroke-width="2" fill="none" />
    <rect x="220" y="780" width="360" height="160" rx="5" stroke="#3182CE" stroke-width="1" fill="none" />
    <rect x="230" y="790" width="340" height="140" rx="5" stroke="#3182CE" stroke-width="1" fill="none" />
    
    <rect x="700" y="750" width="400" height="220" rx="10" stroke="#2B6CB0" stroke-width="2" fill="none" />
    <rect x="720" y="780" width="360" height="160" rx="5" stroke="#3182CE" stroke-width="1" fill="none" />
    <rect x="730" y="790" width="340" height="140" rx="5" stroke="#3182CE" stroke-width="1" fill="none" />
    
    <rect x="1200" y="750" width="400" height="220" rx="10" stroke="#2B6CB0" stroke-width="2" fill="none" />
    <rect x="1220" y="780" width="360" height="160" rx="5" stroke="#3182CE" stroke-width="1" fill="none" />
    <rect x="1230" y="790" width="340" height="140" rx="5" stroke="#3182CE" stroke-width="1" fill="none" />
    
    <!-- Bottom text-like pattern -->
    <rect x="240" y="840" width="320" height="15" rx="3" fill="#3182CE" />
    <rect x="240" y="865" width="280" height="15" rx="3" fill="#3182CE" />
    <rect x="240" y="890" width="300" height="15" rx="3" fill="#3182CE" />
    
    <rect x="740" y="840" width="320" height="15" rx="3" fill="#3182CE" />
    <rect x="740" y="865" width="280" height="15" rx="3" fill="#3182CE" />
    <rect x="740" y="890" width="300" height="15" rx="3" fill="#3182CE" />
    
    <rect x="1240" y="840" width="320" height="15" rx="3" fill="#3182CE" />
    <rect x="1240" y="865" width="280" height="15" rx="3" fill="#3182CE" />
    <rect x="1240" y="890" width="300" height="15" rx="3" fill="#3182CE" />
  </g>
  
  <!-- Defs for gradients -->
  <defs>
    <linearGradient id="home-gradient" x1="0" y1="0" x2="1920" y2="1080" gradientUnits="userSpaceOnUse">
      <stop offset="0" stop-color="#EBF8FF" />
      <stop offset="1" stop-color="#F7FAFC" />
    </linearGradient>
  </defs>
</svg>