<?xml version="1.0" encoding="UTF-8"?>
<svg width="1920" height="1080" viewBox="0 0 1920 1080" fill="none" xmlns="http://www.w3.org/2000/svg">
  <!-- Subtle gradient background -->
  <rect width="1920" height="1080" fill="url(#projects-gradient)" />
  
  <!-- Projects abstract elements -->
  <g opacity="0.06">
    <!-- Code-like abstract patterns -->
    <path d="M100,100 L300,100" stroke="#2B6CB0" stroke-width="2" />
    <path d="M100,130 L250,130" stroke="#3182CE" stroke-width="2" />
    <path d="M100,160 L400,160" stroke="#2B6CB0" stroke-width="2" />
    <path d="M150,190 L350,190" stroke="#3182CE" stroke-width="2" />
    <path d="M150,220 L300,220" stroke="#2B6CB0" stroke-width="2" />
    <path d="M100,250 L450,250" stroke="#3182CE" stroke-width="2" />
    
    <path d="M500,100 L700,100" stroke="#2B6CB0" stroke-width="2" />
    <path d="M500,130 L650,130" stroke="#3182CE" stroke-width="2" />
    <path d="M500,160 L800,160" stroke="#2B6CB0" stroke-width="2" />
    <path d="M550,190 L750,190" stroke="#3182CE" stroke-width="2" />
    <path d="M550,220 L700,220" stroke="#2B6CB0" stroke-width="2" />
    <path d="M500,250 L850,250" stroke="#3182CE" stroke-width="2" />
    
    <path d="M900,100 L1100,100" stroke="#2B6CB0" stroke-width="2" />
    <path d="M900,130 L1050,130" stroke="#3182CE" stroke-width="2" />
    <path d="M900,160 L1200,160" stroke="#2B6CB0" stroke-width="2" />
    <path d="M950,190 L1150,190" stroke="#3182CE" stroke-width="2" />
    <path d="M950,220 L1100,220" stroke="#2B6CB0" stroke-width="2" />
    <path d="M900,250 L1250,250" stroke="#3182CE" stroke-width="2" />
    
    <path d="M1300,100 L1500,100" stroke="#2B6CB0" stroke-width="2" />
    <path d="M1300,130 L1450,130" stroke="#3182CE" stroke-width="2" />
    <path d="M1300,160 L1600,160" stroke="#2B6CB0" stroke-width="2" />
    <path d="M1350,190 L1550,190" stroke="#3182CE" stroke-width="2" />
    <path d="M1350,220 L1500,220" stroke="#2B6CB0" stroke-width="2" />
    <path d="M1300,250 L1650,250" stroke="#3182CE" stroke-width="2" />
    
    <path d="M1700,100 L1900,100" stroke="#2B6CB0" stroke-width="2" />
    <path d="M1700,130 L1850,130" stroke="#3182CE" stroke-width="2" />
    <path d="M1700,160 L2000,160" stroke="#2B6CB0" stroke-width="2" />
    <path d="M1750,190 L1950,190" stroke="#3182CE" stroke-width="2" />
    <path d="M1750,220 L1900,220" stroke="#2B6CB0" stroke-width="2" />
    <path d="M1700,250 L2050,250" stroke="#3182CE" stroke-width="2" />
    
    <!-- Project card elements -->
    <rect x="150" y="400" width="400" height="250" rx="10" stroke="#2B6CB0" stroke-width="2" fill="#2B6CB0" fill-opacity="0.05" />
    <rect x="600" y="400" width="400" height="250" rx="10" stroke="#3182CE" stroke-width="2" fill="#3182CE" fill-opacity="0.05" />
    <rect x="1050" y="400" width="400" height="250" rx="10" stroke="#2B6CB0" stroke-width="2" fill="#2B6CB0" fill-opacity="0.05" />
    <rect x="1500" y="400" width="400" height="250" rx="10" stroke="#3182CE" stroke-width="2" fill="#3182CE" fill-opacity="0.05" />
    
    <rect x="300" y="700" width="400" height="250" rx="10" stroke="#3182CE" stroke-width="2" fill="#3182CE" fill-opacity="0.05" />
    <rect x="750" y="700" width="400" height="250" rx="10" stroke="#2B6CB0" stroke-width="2" fill="#2B6CB0" fill-opacity="0.05" />
    <rect x="1200" y="700" width="400" height="250" rx="10" stroke="#3182CE" stroke-width="2" fill="#3182CE" fill-opacity="0.05" />
    
    <!-- Abstract connection patterns -->
    <path d="M350,650 L350,700" stroke="#2B6CB0" stroke-width="2" stroke-dasharray="5, 8" />
    <path d="M800,650 L800,700" stroke="#3182CE" stroke-width="2" stroke-dasharray="5, 8" />
    <path d="M1250,650 L1250,700" stroke="#2B6CB0" stroke-width="2" stroke-dasharray="5, 8" />
    <path d="M1700,650 L1400,700" stroke="#3182CE" stroke-width="2" stroke-dasharray="5, 8" />
  </g>
  
  <!-- Defs for gradients -->
  <defs>
    <linearGradient id="projects-gradient" x1="1920" y1="0" x2="0" y2="1080" gradientUnits="userSpaceOnUse">
      <stop offset="0" stop-color="#F0F9FF" />
      <stop offset="1" stop-color="#F8FAFC" />
    </linearGradient>
  </defs>
</svg>