<?xml version="1.0" encoding="UTF-8"?>
<svg width="1920" height="1080" viewBox="0 0 1920 1080" fill="none" xmlns="http://www.w3.org/2000/svg">
  <!-- Subtle gradient background -->
  <rect width="1920" height="1080" fill="url(#projects-gradient)" />
  
  <!-- Projects abstract elements -->
  <g opacity="0.06">
    <!-- Project cards pattern -->
    <rect x="200" y="100" width="400" height="300" rx="10" stroke="#2B6CB0" stroke-width="2" fill="none" />
    <rect x="200" y="100" width="400" height="150" rx="10 10 0 0" fill="#3182CE" fill-opacity="0.3" />
    <rect x="220" y="270" width="200" height="30" rx="5" fill="#2B6CB0" />
    <rect x="220" y="310" width="360" height="10" rx="5" fill="#3182CE" />
    <rect x="220" y="330" width="300" height="10" rx="5" fill="#3182CE" />
    <rect x="220" y="350" width="320" height="10" rx="5" fill="#3182CE" />
    
    <rect x="650" y="100" width="400" height="300" rx="10" stroke="#2B6CB0" stroke-width="2" fill="none" />
    <rect x="650" y="100" width="400" height="150" rx="10 10 0 0" fill="#3182CE" fill-opacity="0.3" />
    <rect x="670" y="270" width="200" height="30" rx="5" fill="#2B6CB0" />
    <rect x="670" y="310" width="360" height="10" rx="5" fill="#3182CE" />
    <rect x="670" y="330" width="300" height="10" rx="5" fill="#3182CE" />
    <rect x="670" y="350" width="320" height="10" rx="5" fill="#3182CE" />
    
    <rect x="1100" y="100" width="400" height="300" rx="10" stroke="#2B6CB0" stroke-width="2" fill="none" />
    <rect x="1100" y="100" width="400" height="150" rx="10 10 0 0" fill="#3182CE" fill-opacity="0.3" />
    <rect x="1120" y="270" width="200" height="30" rx="5" fill="#2B6CB0" />
    <rect x="1120" y="310" width="360" height="10" rx="5" fill="#3182CE" />
    <rect x="1120" y="330" width="300" height="10" rx="5" fill="#3182CE" />
    <rect x="1120" y="350" width="320" height="10" rx="5" fill="#3182CE" />
    
    <rect x="200" y="450" width="400" height="300" rx="10" stroke="#2B6CB0" stroke-width="2" fill="none" />
    <rect x="200" y="450" width="400" height="150" rx="10 10 0 0" fill="#3182CE" fill-opacity="0.3" />
    <rect x="220" y="620" width="200" height="30" rx="5" fill="#2B6CB0" />
    <rect x="220" y="660" width="360" height="10" rx="5" fill="#3182CE" />
    <rect x="220" y="680" width="300" height="10" rx="5" fill="#3182CE" />
    <rect x="220" y="700" width="320" height="10" rx="5" fill="#3182CE" />
    
    <rect x="650" y="450" width="400" height="300" rx="10" stroke="#2B6CB0" stroke-width="2" fill="none" />
    <rect x="650" y="450" width="400" height="150" rx="10 10 0 0" fill="#3182CE" fill-opacity="0.3" />
    <rect x="670" y="620" width="200" height="30" rx="5" fill="#2B6CB0" />
    <rect x="670" y="660" width="360" height="10" rx="5" fill="#3182CE" />
    <rect x="670" y="680" width="300" height="10" rx="5" fill="#3182CE" />
    <rect x="670" y="700" width="320" height="10" rx="5" fill="#3182CE" />
    
    <rect x="1100" y="450" width="400" height="300" rx="10" stroke="#2B6CB0" stroke-width="2" fill="none" />
    <rect x="1100" y="450" width="400" height="150" rx="10 10 0 0" fill="#3182CE" fill-opacity="0.3" />
    <rect x="1120" y="620" width="200" height="30" rx="5" fill="#2B6CB0" />
    <rect x="1120" y="660" width="360" height="10" rx="5" fill="#3182CE" />
    <rect x="1120" y="680" width="300" height="10" rx="5" fill="#3182CE" />
    <rect x="1120" y="700" width="320" height="10" rx="5" fill="#3182CE" />
    
    <rect x="400" y="800" width="800" height="200" rx="10" stroke="#2B6CB0" stroke-width="2" fill="none" />
    <rect x="400" y="800" width="800" height="50" rx="10 10 0 0" fill="#2B6CB0" fill-opacity="0.3" />
    <rect x="430" y="815" width="400" height="20" rx="5" fill="#3182CE" />
    <rect x="430" y="870" width="740" height="10" rx="5" fill="#3182CE" />
    <rect x="430" y="890" width="700" height="10" rx="5" fill="#3182CE" />
    <rect x="430" y="910" width="720" height="10" rx="5" fill="#3182CE" />
    <rect x="430" y="930" width="680" height="10" rx="5" fill="#3182CE" />
    <rect x="430" y="950" width="660" height="10" rx="5" fill="#3182CE" />
    <rect x="430" y="970" width="640" height="10" rx="5" fill="#3182CE" />
    
    <!-- Connection lines -->
    <line x1="400" y1="250" x2="600" y2="250" stroke="#2B6CB0" stroke-width="1" stroke-dasharray="5 5" />
    <line x1="850" y1="250" x2="1050" y2="250" stroke="#2B6CB0" stroke-width="1" stroke-dasharray="5 5" />
    <line x1="400" y1="600" x2="600" y2="600" stroke="#2B6CB0" stroke-width="1" stroke-dasharray="5 5" />
    <line x1="850" y1="600" x2="1050" y2="600" stroke="#2B6CB0" stroke-width="1" stroke-dasharray="5 5" />
    <line x1="1300" y1="600" x2="1500" y2="600" stroke="#2B6CB0" stroke-width="1" stroke-dasharray="5 5" />
    <line x1="1300" y1="250" x2="1500" y2="600" stroke="#2B6CB0" stroke-width="1" stroke-dasharray="5 5" />
    <line x1="400" y1="400" x2="800" y2="800" stroke="#2B6CB0" stroke-width="1" stroke-dasharray="5 5" />
    <line x1="850" y1="750" x2="800" y2="800" stroke="#2B6CB0" stroke-width="1" stroke-dasharray="5 5" />
    <line x1="1300" y1="400" x2="800" y2="800" stroke="#2B6CB0" stroke-width="1" stroke-dasharray="5 5" />
    
    <!-- Data flow symbols -->
    <circle cx="400" cy="250" r="5" fill="#2B6CB0" />
    <circle cx="600" cy="250" r="5" fill="#2B6CB0" />
    <circle cx="850" cy="250" r="5" fill="#2B6CB0" />
    <circle cx="1050" cy="250" r="5" fill="#2B6CB0" />
    <circle cx="400" cy="600" r="5" fill="#2B6CB0" />
    <circle cx="600" cy="600" r="5" fill="#2B6CB0" />
    <circle cx="850" cy="600" r="5" fill="#2B6CB0" />
    <circle cx="1050" cy="600" r="5" fill="#2B6CB0" />
    <circle cx="1300" cy="600" r="5" fill="#2B6CB0" />
    <circle cx="1500" cy="600" r="5" fill="#2B6CB0" />
    <circle cx="1300" cy="250" r="5" fill="#2B6CB0" />
    <circle cx="400" cy="400" r="5" fill="#2B6CB0" />
    <circle cx="800" cy="800" r="5" fill="#2B6CB0" />
    <circle cx="850" cy="750" r="5" fill="#2B6CB0" />
    <circle cx="1300" cy="400" r="5" fill="#2B6CB0" />
  </g>
  
  <!-- Defs for gradients -->
  <defs>
    <linearGradient id="projects-gradient" x1="1920" y1="0" x2="0" y2="1080" gradientUnits="userSpaceOnUse">
      <stop offset="0" stop-color="#F0F5FF" />
      <stop offset="1" stop-color="#FEFCFF" />
    </linearGradient>
  </defs>
</svg>