<?xml version="1.0" encoding="UTF-8"?>
<svg width="1920" height="1080" viewBox="0 0 1920 1080" fill="none" xmlns="http://www.w3.org/2000/svg">
  <!-- Subtle gradient background -->
  <rect width="1920" height="1080" fill="url(#resume-gradient)" />
  
  <!-- Resume abstract elements -->
  <g opacity="0.06">
    <!-- Document header -->
    <rect x="200" y="80" width="1520" height="100" rx="5" stroke="#2B6CB0" stroke-width="2" />
    <rect x="220" y="110" width="600" height="40" rx="3" fill="#2B6CB0" />
    <rect x="1400" y="110" width="300" height="40" rx="3" fill="#2B6CB0" />
    
    <!-- Resume sections -->
    <rect x="200" y="220" width="1520" height="60" rx="3" stroke="#3182CE" stroke-width="2" />
    <rect x="220" y="240" width="300" height="20" rx="3" fill="#3182CE" />
    
    <!-- Education section -->
    <rect x="200" y="300" width="1520" height="150" rx="3" stroke="#3182CE" stroke-width="2" />
    <rect x="220" y="320" width="200" height="20" rx="3" fill="#3182CE" />
    <rect x="220" y="350" width="500" height="15" rx="2" fill="#3182CE" />
    <rect x="220" y="375" width="450" height="15" rx="2" fill="#3182CE" />
    <rect x="220" y="400" width="480" height="15" rx="2" fill="#3182CE" />
    <rect x="1300" y="320" width="200" height="20" rx="3" fill="#3182CE" />
    
    <!-- Experience section -->
    <rect x="200" y="470" width="1520" height="250" rx="3" stroke="#3182CE" stroke-width="2" />
    <rect x="220" y="490" width="200" height="20" rx="3" fill="#3182CE" />
    <rect x="220" y="520" width="500" height="15" rx="2" fill="#3182CE" />
    <rect x="220" y="545" width="450" height="15" rx="2" fill="#3182CE" />
    <rect x="220" y="570" width="480" height="15" rx="2" fill="#3182CE" />
    <rect x="220" y="595" width="600" height="15" rx="2" fill="#3182CE" />
    <rect x="220" y="620" width="500" height="15" rx="2" fill="#3182CE" />
    <rect x="220" y="645" width="520" height="15" rx="2" fill="#3182CE" />
    <rect x="220" y="670" width="550" height="15" rx="2" fill="#3182CE" />
    <rect x="1300" y="490" width="200" height="20" rx="3" fill="#3182CE" />
    
    <!-- Skills section -->
    <rect x="200" y="740" width="1520" height="150" rx="3" stroke="#3182CE" stroke-width="2" />
    <rect x="220" y="760" width="200" height="20" rx="3" fill="#3182CE" />
    
    <!-- Skill bars -->
    <rect x="220" y="790" width="150" height="15" rx="2" fill="#3182CE" />
    <rect x="380" y="790" width="500" height="15" rx="7.5" fill="#2B6CB0" />
    
    <rect x="220" y="815" width="150" height="15" rx="2" fill="#3182CE" />
    <rect x="380" y="815" width="400" height="15" rx="7.5" fill="#2B6CB0" />
    
    <rect x="220" y="840" width="150" height="15" rx="2" fill="#3182CE" />
    <rect x="380" y="840" width="450" height="15" rx="7.5" fill="#2B6CB0" />
    
    <rect x="700" y="790" width="150" height="15" rx="2" fill="#3182CE" />
    <rect x="860" y="790" width="350" height="15" rx="7.5" fill="#2B6CB0" />
    
    <rect x="700" y="815" width="150" height="15" rx="2" fill="#3182CE" />
    <rect x="860" y="815" width="470" height="15" rx="7.5" fill="#2B6CB0" />
    
    <rect x="700" y="840" width="150" height="15" rx="2" fill="#3182CE" />
    <rect x="860" y="840" width="420" height="15" rx="7.5" fill="#2B6CB0" />
    
    <!-- References section -->
    <rect x="200" y="910" width="1520" height="100" rx="3" stroke="#3182CE" stroke-width="2" />
    <rect x="220" y="930" width="200" height="20" rx="3" fill="#3182CE" />
    <rect x="220" y="960" width="400" height="15" rx="2" fill="#3182CE" />
    <rect x="220" y="985" width="350" height="15" rx="2" fill="#3182CE" />
    
    <rect x="700" y="960" width="400" height="15" rx="2" fill="#3182CE" />
    <rect x="700" y="985" width="350" height="15" rx="2" fill="#3182CE" />
    
    <rect x="1180" y="960" width="400" height="15" rx="2" fill="#3182CE" />
    <rect x="1180" y="985" width="350" height="15" rx="2" fill="#3182CE" />
  </g>
  
  <!-- Defs for gradients -->
  <defs>
    <linearGradient id="resume-gradient" x1="0" y1="0" x2="1920" y2="1080" gradientUnits="userSpaceOnUse">
      <stop offset="0" stop-color="#F7FAFC" />
      <stop offset="1" stop-color="#EDF2F7" />
    </linearGradient>
  </defs>
</svg>