<?xml version="1.0" encoding="UTF-8"?>
<svg width="1920" height="1080" viewBox="0 0 1920 1080" fill="none" xmlns="http://www.w3.org/2000/svg">
  <!-- Subtle gradient background -->
  <rect width="1920" height="1080" fill="url(#skills-gradient)" />
  
  <!-- Skills abstract elements -->
  <g opacity="0.06">
    <!-- Skill bars pattern -->
    <rect x="200" y="100" width="150" height="30" rx="3" fill="#2B6CB0" />
    <rect x="360" y="100" width="500" height="30" rx="15" fill="#3182CE" />
    
    <rect x="200" y="150" width="150" height="30" rx="3" fill="#2B6CB0" />
    <rect x="360" y="150" width="400" height="30" rx="15" fill="#3182CE" />
    
    <rect x="200" y="200" width="150" height="30" rx="3" fill="#2B6CB0" />
    <rect x="360" y="200" width="600" height="30" rx="15" fill="#3182CE" />
    
    <rect x="200" y="250" width="150" height="30" rx="3" fill="#2B6CB0" />
    <rect x="360" y="250" width="350" height="30" rx="15" fill="#3182CE" />
    
    <rect x="200" y="300" width="150" height="30" rx="3" fill="#2B6CB0" />
    <rect x="360" y="300" width="450" height="30" rx="15" fill="#3182CE" />
    
    <!-- Programming languages pattern -->
    <rect x="1000" y="100" width="150" height="30" rx="3" fill="#2B6CB0" />
    <rect x="1160" y="100" width="560" height="30" rx="15" fill="#3182CE" />
    
    <rect x="1000" y="150" width="150" height="30" rx="3" fill="#2B6CB0" />
    <rect x="1160" y="150" width="400" height="30" rx="15" fill="#3182CE" />
    
    <rect x="1000" y="200" width="150" height="30" rx="3" fill="#2B6CB0" />
    <rect x="1160" y="200" width="300" height="30" rx="15" fill="#3182CE" />
    
    <rect x="1000" y="250" width="150" height="30" rx="3" fill="#2B6CB0" />
    <rect x="1160" y="250" width="500" height="30" rx="15" fill="#3182CE" />
    
    <rect x="1000" y="300" width="150" height="30" rx="3" fill="#2B6CB0" />
    <rect x="1160" y="300" width="450" height="30" rx="15" fill="#3182CE" />
    
    <!-- Database pattern -->
    <rect x="200" y="400" width="1520" height="200" rx="10" stroke="#2B6CB0" stroke-width="2" fill="none" />
    <rect x="220" y="420" width="200" height="30" rx="3" fill="#2B6CB0" />
    
    <rect x="220" y="470" width="150" height="20" rx="3" fill="#3182CE" />
    <rect x="220" y="500" width="130" height="20" rx="3" fill="#3182CE" />
    <rect x="220" y="530" width="170" height="20" rx="3" fill="#3182CE" />
    <rect x="220" y="560" width="140" height="20" rx="3" fill="#3182CE" />
    
    <rect x="420" y="470" width="150" height="20" rx="3" fill="#3182CE" />
    <rect x="420" y="500" width="130" height="20" rx="3" fill="#3182CE" />
    <rect x="420" y="530" width="170" height="20" rx="3" fill="#3182CE" />
    <rect x="420" y="560" width="140" height="20" rx="3" fill="#3182CE" />
    
    <rect x="620" y="470" width="150" height="20" rx="3" fill="#3182CE" />
    <rect x="620" y="500" width="130" height="20" rx="3" fill="#3182CE" />
    <rect x="620" y="530" width="170" height="20" rx="3" fill="#3182CE" />
    <rect x="620" y="560" width="140" height="20" rx="3" fill="#3182CE" />
    
    <rect x="820" y="470" width="150" height="20" rx="3" fill="#3182CE" />
    <rect x="820" y="500" width="130" height="20" rx="3" fill="#3182CE" />
    <rect x="820" y="530" width="170" height="20" rx="3" fill="#3182CE" />
    <rect x="820" y="560" width="140" height="20" rx="3" fill="#3182CE" />
    
    <rect x="1020" y="470" width="150" height="20" rx="3" fill="#3182CE" />
    <rect x="1020" y="500" width="130" height="20" rx="3" fill="#3182CE" />
    <rect x="1020" y="530" width="170" height="20" rx="3" fill="#3182CE" />
    <rect x="1020" y="560" width="140" height="20" rx="3" fill="#3182CE" />
    
    <rect x="1220" y="470" width="150" height="20" rx="3" fill="#3182CE" />
    <rect x="1220" y="500" width="130" height="20" rx="3" fill="#3182CE" />
    <rect x="1220" y="530" width="170" height="20" rx="3" fill="#3182CE" />
    <rect x="1220" y="560" width="140" height="20" rx="3" fill="#3182CE" />
    
    <rect x="1420" y="470" width="150" height="20" rx="3" fill="#3182CE" />
    <rect x="1420" y="500" width="130" height="20" rx="3" fill="#3182CE" />
    <rect x="1420" y="530" width="170" height="20" rx="3" fill="#3182CE" />
    <rect x="1420" y="560" width="140" height="20" rx="3" fill="#3182CE" />
    
    <!-- Charts pattern -->
    <circle cx="300" cy="700" r="100" stroke="#2B6CB0" stroke-width="3" fill="none" />
    <path d="M300,700 L300,600" stroke="#2B6CB0" stroke-width="2" />
    <path d="M300,700 L380,650" stroke="#2B6CB0" stroke-width="2" />
    <path d="M300,700 L380,750" stroke="#2B6CB0" stroke-width="2" />
    <path d="M300,700 L300,800" stroke="#2B6CB0" stroke-width="2" />
    <path d="M300,700 L220,750" stroke="#2B6CB0" stroke-width="2" />
    <path d="M300,700 L220,650" stroke="#2B6CB0" stroke-width="2" />
    
    <rect x="500" y="650" width="300" height="30" rx="3" fill="#3182CE" />
    <rect x="500" y="690" width="400" height="30" rx="3" fill="#3182CE" />
    <rect x="500" y="730" width="200" height="30" rx="3" fill="#3182CE" />
    
    <circle cx="1000" cy="700" r="100" stroke="#2B6CB0" stroke-width="3" fill="none" />
    <path d="M1000,700 L1000,600" stroke="#2B6CB0" stroke-width="10" stroke-dasharray="10 5" />
    <path d="M1000,700 L1080,650" stroke="#2B6CB0" stroke-width="25" stroke-dasharray="10 5" />
    <path d="M1000,700 L1080,750" stroke="#2B6CB0" stroke-width="15" stroke-dasharray="10 5" />
    <path d="M1000,700 L1000,800" stroke="#2B6CB0" stroke-width="20" stroke-dasharray="10 5" />
    <path d="M1000,700 L920,750" stroke="#2B6CB0" stroke-width="30" stroke-dasharray="10 5" />
    <path d="M1000,700 L920,650" stroke="#2B6CB0" stroke-width="5" stroke-dasharray="10 5" />
    
    <rect x="1200" y="650" width="300" height="30" rx="3" fill="#3182CE" />
    <rect x="1200" y="690" width="400" height="30" rx="3" fill="#3182CE" />
    <rect x="1200" y="730" width="200" height="30" rx="3" fill="#3182CE" />
    
    <!-- Code pattern -->
    <rect x="200" y="900" width="1520" height="120" rx="10" stroke="#2B6CB0" stroke-width="2" fill="none" />
    <rect x="220" y="920" width="400" height="15" rx="3" fill="#3182CE" />
    <rect x="240" y="945" width="380" height="15" rx="3" fill="#3182CE" />
    <rect x="260" y="970" width="360" height="15" rx="3" fill="#3182CE" />
    <rect x="240" y="995" width="380" height="15" rx="3" fill="#3182CE" />
    
    <rect x="700" y="920" width="400" height="15" rx="3" fill="#3182CE" />
    <rect x="720" y="945" width="380" height="15" rx="3" fill="#3182CE" />
    <rect x="740" y="970" width="360" height="15" rx="3" fill="#3182CE" />
    <rect x="720" y="995" width="380" height="15" rx="3" fill="#3182CE" />
    
    <rect x="1180" y="920" width="400" height="15" rx="3" fill="#3182CE" />
    <rect x="1200" y="945" width="380" height="15" rx="3" fill="#3182CE" />
    <rect x="1220" y="970" width="360" height="15" rx="3" fill="#3182CE" />
    <rect x="1200" y="995" width="380" height="15" rx="3" fill="#3182CE" />
  </g>
  
  <!-- Defs for gradients -->
  <defs>
    <linearGradient id="skills-gradient" x1="0" y1="0" x2="1920" y2="1080" gradientUnits="userSpaceOnUse">
      <stop offset="0" stop-color="#EBF8FF" />
      <stop offset="1" stop-color="#E6FFFA" />
    </linearGradient>
  </defs>
</svg>