<?xml version="1.0" encoding="UTF-8"?>
<svg width="1920" height="1080" viewBox="0 0 1920 1080" fill="none" xmlns="http://www.w3.org/2000/svg">
  <!-- Main background gradient -->
  <rect width="1920" height="1080" fill="url(#skills-gradient)" />
  
  <!-- Skills visualization pattern -->
  <g opacity="0.1">
    <!-- Skills meters and labels -->
    <g transform="translate(250, 180)">
      <!-- Programming -->
      <text x="0" y="15" font-family="Arial" font-size="16" fill="#2B6CB0" font-weight="bold">Programming</text>
      <rect x="150" y="5" width="300" height="20" rx="10" stroke="#3182CE" stroke-width="1" fill="none" />
      <rect x="150" y="5" width="240" height="20" rx="10" fill="url(#skill-fill)" />
      
      <!-- Data Analysis -->
      <text x="0" y="55" font-family="Arial" font-size="16" fill="#2B6CB0" font-weight="bold">Data Analysis</text>
      <rect x="150" y="45" width="300" height="20" rx="10" stroke="#3182CE" stroke-width="1" fill="none" />
      <rect x="150" y="45" width="270" height="20" rx="10" fill="url(#skill-fill)" />
      
      <!-- Machine Learning -->
      <text x="0" y="95" font-family="Arial" font-size="16" fill="#2B6CB0" font-weight="bold">Machine Learning</text>
      <rect x="150" y="85" width="300" height="20" rx="10" stroke="#3182CE" stroke-width="1" fill="none" />
      <rect x="150" y="85" width="255" height="20" rx="10" fill="url(#skill-fill)" />
      
      <!-- Database -->
      <text x="0" y="135" font-family="Arial" font-size="16" fill="#2B6CB0" font-weight="bold">Database</text>
      <rect x="150" y="125" width="300" height="20" rx="10" stroke="#3182CE" stroke-width="1" fill="none" />
      <rect x="150" y="125" width="225" height="20" rx="10" fill="url(#skill-fill)" />
      
      <!-- Cloud Computing -->
      <text x="0" y="175" font-family="Arial" font-size="16" fill="#2B6CB0" font-weight="bold">Cloud Computing</text>
      <rect x="150" y="165" width="300" height="20" rx="10" stroke="#3182CE" stroke-width="1" fill="none" />
      <rect x="150" y="165" width="210" height="20" rx="10" fill="url(#skill-fill)" />
    </g>
    
    <!-- Programming languages symbols -->
    <g transform="translate(1220, 180)">
      <!-- Python -->
      <text x="0" y="15" font-family="Arial" font-size="16" fill="#2B6CB0" font-weight="bold">Python</text>
      <rect x="150" y="5" width="300" height="20" rx="10" stroke="#3182CE" stroke-width="1" fill="none" />
      <rect x="150" y="5" width="270" height="20" rx="10" fill="url(#skill-fill)" />
      
      <!-- R -->
      <text x="0" y="55" font-family="Arial" font-size="16" fill="#2B6CB0" font-weight="bold">R</text>
      <rect x="150" y="45" width="300" height="20" rx="10" stroke="#3182CE" stroke-width="1" fill="none" />
      <rect x="150" y="45" width="240" height="20" rx="10" fill="url(#skill-fill)" />
      
      <!-- SQL -->
      <text x="0" y="95" font-family="Arial" font-size="16" fill="#2B6CB0" font-weight="bold">SQL</text>
      <rect x="150" y="85" width="300" height="20" rx="10" stroke="#3182CE" stroke-width="1" fill="none" />
      <rect x="150" y="85" width="255" height="20" rx="10" fill="url(#skill-fill)" />
      
      <!-- JavaScript -->
      <text x="0" y="135" font-family="Arial" font-size="16" fill="#2B6CB0" font-weight="bold">JavaScript</text>
      <rect x="150" y="125" width="300" height="20" rx="10" stroke="#3182CE" stroke-width="1" fill="none" />
      <rect x="150" y="125" width="180" height="20" rx="10" fill="url(#skill-fill)" />
      
      <!-- Java -->
      <text x="0" y="175" font-family="Arial" font-size="16" fill="#2B6CB0" font-weight="bold">Java</text>
      <rect x="150" y="165" width="300" height="20" rx="10" stroke="#3182CE" stroke-width="1" fill="none" />
      <rect x="150" y="165" width="195" height="20" rx="10" fill="url(#skill-fill)" />
    </g>
    
    <!-- Central skills diagram -->
    <g transform="translate(960, 540)" opacity="0.25">
      <!-- Central hub -->
      <circle cx="0" cy="0" r="80" fill="url(#central-hub)" />
      <text x="-65" y="5" font-family="Arial" font-size="22" fill="#2C5282" font-weight="bold">Data Science</text>
      
      <!-- Spokes to different skill areas -->
      <g>
        <!-- Statistical Analysis -->
        <circle cx="-200" cy="-200" r="50" fill="url(#skill-node-1)" />
        <text x="-260" y="-195" font-family="Arial" font-size="16" fill="#2C5282" font-weight="bold">Statistical</text>
        <text x="-260" y="-175" font-family="Arial" font-size="16" fill="#2C5282" font-weight="bold">Analysis</text>
        <line x1="-35" y1="-35" x2="-160" y2="-160" stroke="#3182CE" stroke-width="3" stroke-opacity="0.7" />
        
        <!-- Machine Learning -->
        <circle cx="0" cy="-250" r="50" fill="url(#skill-node-2)" />
        <text x="-45" y="-245" font-family="Arial" font-size="16" fill="#2C5282" font-weight="bold">Machine</text>
        <text x="-45" y="-225" font-family="Arial" font-size="16" fill="#2C5282" font-weight="bold">Learning</text>
        <line x1="0" y1="-80" x2="0" y2="-200" stroke="#3182CE" stroke-width="3" stroke-opacity="0.7" />
        
        <!-- Data Visualization -->
        <circle cx="200" cy="-200" r="50" fill="url(#skill-node-3)" />
        <text x="155" y="-195" font-family="Arial" font-size="16" fill="#2C5282" font-weight="bold">Data</text>
        <text x="135" y="-175" font-family="Arial" font-size="16" fill="#2C5282" font-weight="bold">Visualization</text>
        <line x1="35" y1="-35" x2="160" y2="-160" stroke="#3182CE" stroke-width="3" stroke-opacity="0.7" />
        
        <!-- Big Data -->
        <circle cx="250" cy="0" r="50" fill="url(#skill-node-4)" />
        <text x="230" y="5" font-family="Arial" font-size="16" fill="#2C5282" font-weight="bold">Big Data</text>
        <line x1="80" y1="0" x2="200" y2="0" stroke="#3182CE" stroke-width="3" stroke-opacity="0.7" />
        
        <!-- Database -->
        <circle cx="200" cy="200" r="50" fill="url(#skill-node-1)" />
        <text x="175" y="205" font-family="Arial" font-size="16" fill="#2C5282" font-weight="bold">Database</text>
        <line x1="35" y1="35" x2="160" y2="160" stroke="#3182CE" stroke-width="3" stroke-opacity="0.7" />
        
        <!-- Programming -->
        <circle cx="0" cy="250" r="50" fill="url(#skill-node-2)" />
        <text x="-40" y="255" font-family="Arial" font-size="16" fill="#2C5282" font-weight="bold">Programming</text>
        <line x1="0" y1="80" x2="0" y2="200" stroke="#3182CE" stroke-width="3" stroke-opacity="0.7" />
        
        <!-- Cloud Computing -->
        <circle cx="-200" cy="200" r="50" fill="url(#skill-node-3)" />
        <text x="-245" y="195" font-family="Arial" font-size="16" fill="#2C5282" font-weight="bold">Cloud</text>
        <text x="-255" y="215" font-family="Arial" font-size="16" fill="#2C5282" font-weight="bold">Computing</text>
        <line x1="-35" y1="35" x2="-160" y2="160" stroke="#3182CE" stroke-width="3" stroke-opacity="0.7" />
        
        <!-- Data Engineering -->
        <circle cx="-250" cy="0" r="50" fill="url(#skill-node-4)" />
        <text x="-295" y="-5" font-family="Arial" font-size="16" fill="#2C5282" font-weight="bold">Data</text>
        <text x="-295" y="15" font-family="Arial" font-size="16" fill="#2C5282" font-weight="bold">Engineering</text>
        <line x1="-80" y1="0" x2="-200" y2="0" stroke="#3182CE" stroke-width="3" stroke-opacity="0.7" />
      </g>
    </g>
    
    <!-- Technology logos/icons in corners -->
    <g opacity="0.18">
      <!-- Top left - Python logo -->
      <path d="M150,100 C150,77 165,65 180,65 H220 C235,65 250,77 250,90 V110 C250,123 235,135 220,135 H180 C165,135 150,123 150,110 Z" fill="#3182CE" />
      <path d="M200,65 V135 M150,100 H250" stroke="#F7FAFC" stroke-width="5" />
      
      <!-- Top right - Database icon -->
      <ellipse cx="1750" cy="100" rx="50" ry="20" fill="#3182CE" />
      <path d="M1700,100 V150 M1800,100 V150" stroke="#3182CE" stroke-width="2" stroke-dasharray="5,5" />
      <ellipse cx="1750" cy="150" rx="50" ry="20" fill="#3182CE" />
      
      <!-- Bottom left - Cloud icon -->
      <path d="M150,900 C140,870 160,850 180,850 C190,840 210,840 220,850 C230,840 250,840 260,850 C270,840 290,845 295,860 C310,855 320,870 315,885 C325,890 330,905 320,915 C325,925 315,940 300,935 H190 C170,940 150,920 150,900 Z" fill="#3182CE" />
      
      <!-- Bottom right - Chart icon -->
      <rect x="1700" y="850" width="100" height="70" rx="5" stroke="#3182CE" stroke-width="2" fill="none" />
      <path d="M1710,890 L1730,860 L1750,880 L1770,840 L1790,870" stroke="#3182CE" stroke-width="2" fill="none" />
    </g>
    
    <!-- Code snippets scattered around -->
    <g font-family="monospace" font-size="12" fill="#2B6CB0" opacity="0.15">
      <text x="400" y="400">def analyze_data(data):</text>
      <text x="420" y="420">    # Perform statistical analysis</text>
      <text x="420" y="440">    mean = np.mean(data)</text>
      <text x="420" y="460">    std = np.std(data)</text>
      <text x="420" y="480">    return mean, std</text>
      
      <text x="1300" y="400">class MachineLearningModel:</text>
      <text x="1320" y="420">    def __init__(self, params):</text>
      <text x="1340" y="440">        self.params = params</text>
      <text x="1320" y="460">    def train(self, X, y):</text>
      <text x="1340" y="480">        # Training logic</text>
      
      <text x="400" y="800">SELECT * FROM data_table</text>
      <text x="400" y="820">WHERE category = 'analytics'</text>
      <text x="400" y="840">GROUP BY date</text>
      <text x="400" y="860">ORDER BY count DESC;</text>
      
      <text x="1300" y="800">import matplotlib.pyplot as plt</text>
      <text x="1300" y="820">plt.figure(figsize=(10, 6))</text>
      <text x="1300" y="840">plt.plot(x, y, 'b-')</text>
      <text x="1300" y="860">plt.title("Data Visualization")</text>
    </g>
    
    <!-- Abstract data flow pattern -->
    <path d="M100,300 C300,200 500,350 700,250 S900,300 1100,200 S1400,350 1600,250 S1800,300 1900,250" 
          stroke="url(#flow-gradient)" stroke-width="5" fill="none" stroke-opacity="0.2" stroke-linecap="round" />
    <path d="M100,800 C300,700 500,850 700,750 S900,800 1100,700 S1400,850 1600,750 S1800,800 1900,750" 
          stroke="url(#flow-gradient)" stroke-width="5" fill="none" stroke-opacity="0.2" stroke-linecap="round" />
  </g>
  
  <!-- Defs for gradients -->
  <defs>
    <!-- Main background gradient (works in light/dark mode) -->
    <linearGradient id="skills-gradient" x1="0" y1="0" x2="1920" y2="1080" gradientUnits="userSpaceOnUse">
      <stop offset="0" stop-color="#EBF8FF" />
      <stop offset="1" stop-color="#E6FFFA" />
    </linearGradient>
    
    <!-- Skill meter fill gradient -->
    <linearGradient id="skill-fill" x1="0%" y1="0%" x2="100%" y2="0%">
      <stop offset="0%" stop-color="#4299E1" />
      <stop offset="100%" stop-color="#2B6CB0" />
    </linearGradient>
    
    <!-- Central hub gradient -->
    <radialGradient id="central-hub" cx="0.5" cy="0.5" r="0.5" fx="0.5" fy="0.5">
      <stop offset="0%" stop-color="#4299E1" />
      <stop offset="100%" stop-color="#2C5282" />
    </radialGradient>
    
    <!-- Skill node gradients -->
    <radialGradient id="skill-node-1" cx="0.5" cy="0.5" r="0.5" fx="0.5" fy="0.5">
      <stop offset="0%" stop-color="#4299E1" />
      <stop offset="100%" stop-color="#2B6CB0" />
    </radialGradient>
    
    <radialGradient id="skill-node-2" cx="0.5" cy="0.5" r="0.5" fx="0.5" fy="0.5">
      <stop offset="0%" stop-color="#63B3ED" />
      <stop offset="100%" stop-color="#3182CE" />
    </radialGradient>
    
    <radialGradient id="skill-node-3" cx="0.5" cy="0.5" r="0.5" fx="0.5" fy="0.5">
      <stop offset="0%" stop-color="#90CDF4" />
      <stop offset="100%" stop-color="#4299E1" />
    </radialGradient>
    
    <radialGradient id="skill-node-4" cx="0.5" cy="0.5" r="0.5" fx="0.5" fy="0.5">
      <stop offset="0%" stop-color="#BEE3F8" />
      <stop offset="100%" stop-color="#63B3ED" />
    </radialGradient>
    
    <!-- Data flow gradient -->
    <linearGradient id="flow-gradient" x1="0%" y1="0%" x2="100%" y2="0%">
      <stop offset="0%" stop-color="#3182CE" stop-opacity="0.2" />
      <stop offset="50%" stop-color="#4299E1" stop-opacity="0.7" />
      <stop offset="100%" stop-color="#3182CE" stop-opacity="0.2" />
    </linearGradient>
  </defs>
</svg>